<?xml version="1.0" standalone="no"?>
<svg xmlns="http://www.w3.org/2000/svg" viewBox="0 0 104.301 120.436" width="104.301" height="120.436"><polygon fill="none" stroke="#30b612" stroke-width="3" points="102.801,30.859 102.801,89.577 52.1505,118.936 1.5,89.577 1.5,30.859 52.1505,1.5"></polygon><g fill="#0019ff" color="#0019ff" transform="translate(30.1505 22.5) scale(0.6875)"><svg width="64.0" height="64.0" x="0.0" y="0.0" viewBox="0 0 64 64"><g><path d="M55.994,42.332L35.203,53.301L20.67,48.395l13.539-7.193c1.832-0.793,2.676-2.92,1.883-4.754   c-0.791-1.832-2.918-2.676-4.753-1.883L10.76,40.969H9.548v15.813h1.79l23.266,3.871c0.328,0.096,0.664,0.141,1,0.141   c0.582,0,1.162-0.141,1.688-0.416l22.078-11.65c1.766-0.932,2.441-3.119,1.51-4.885S57.76,41.398,55.994,42.332z"></path><rect y="40.67" width="8.155" height="16.309"></rect><path d="M49.35,35.307c8.09,0,14.65-6.561,14.65-14.65c0-8.092-6.561-14.652-14.65-14.652c-8.092,0-14.652,6.561-14.652,14.652   C34.697,28.746,41.258,35.307,49.35,35.307z M49.35,8.443c6.732,0,12.211,5.479,12.211,12.213c0,6.732-5.479,12.211-12.211,12.211   c-6.734,0-12.213-5.479-12.213-12.211C37.137,13.922,42.615,8.443,49.35,8.443z"></path><path d="M49.35,30.867c5.631,0,10.211-4.58,10.211-10.211c0-5.633-4.58-10.213-10.211-10.213c-5.633,0-10.215,4.58-10.215,10.213   C39.135,26.287,43.717,30.867,49.35,30.867z M49.1,21.127c-1.963-0.77-3.176-1.654-3.176-3.328c0-1.598,1.135-2.809,2.904-3.096   v-1.945h1.193v1.867c1.154,0.039,1.943,0.346,2.502,0.672l-0.482,1.271c-0.402-0.232-1.191-0.654-2.424-0.654   c-1.48,0-2.039,0.885-2.039,1.654c0,1,0.713,1.5,2.387,2.191c1.98,0.809,2.98,1.809,2.98,3.521c0,1.52-1.057,2.943-3.039,3.271v2   h-1.213v-1.943c-1.115-0.02-2.268-0.365-2.943-0.846l0.463-1.289c0.693,0.461,1.693,0.828,2.77,0.828   c1.365,0,2.289-0.791,2.289-1.887C51.271,22.357,50.521,21.703,49.1,21.127z"></path><path d="M23.311,22.396c5.299,0,9.594-4.297,9.594-9.596s-4.295-9.594-9.594-9.594s-9.594,4.295-9.594,9.594   S18.012,22.396,23.311,22.396z M23.311,4.803c4.41,0,7.998,3.588,7.998,7.998s-3.588,7.996-7.998,7.996   c-4.408,0-7.996-3.586-7.996-7.996S18.903,4.803,23.311,4.803z"></path><path d="M23.311,19.49c3.688,0,6.688-3.002,6.688-6.689s-3-6.688-6.688-6.688s-6.689,3-6.689,6.688S19.624,19.49,23.311,19.49z    M23.147,13.109c-1.285-0.504-2.078-1.084-2.078-2.18c0-1.045,0.742-1.838,1.902-2.027V7.631h0.781v1.221   c0.756,0.025,1.271,0.227,1.639,0.439l-0.314,0.832c-0.266-0.15-0.783-0.428-1.588-0.428c-0.971,0-1.336,0.58-1.336,1.084   c0,0.656,0.465,0.982,1.563,1.436c1.297,0.529,1.951,1.186,1.951,2.307c0,0.994-0.693,1.926-1.99,2.141v1.311h-0.793v-1.271   c-0.73-0.014-1.486-0.24-1.928-0.555l0.303-0.844c0.453,0.303,1.109,0.541,1.813,0.541c0.896,0,1.5-0.518,1.5-1.234   C24.571,13.916,24.081,13.488,23.147,13.109z"></path></g></svg></g><path fill="#0019ff" fill-rule="nonzero" d="M0.34 0.22L0.34 0.22Q1.48 0.22 3.99 0.11Q6.50 0 8.54 0L8.54 0Q12.88 0 14.73 1.69Q16.58 3.39 16.58 6.41L16.58 6.41Q16.58 9.10 14.18 10.92Q11.79 12.74 8.48 12.74L8.48 12.74Q6.78 12.74 5.60 12.57L5.60 12.57L5.60 21.36L8.15 21.64Q8.26 22.06 8.15 22.68L8.15 22.68Q6.38 22.60 4.17 22.60L4.17 22.60Q2.52 22.60 0.17 22.65L0.17 22.65Q0 22.15 0.17 21.64L0.17 21.64L2.49 21.31Q2.60 20.24 2.60 18.03L2.60 18.03L2.60 1.54L0.34 1.26Q0.22 0.84 0.34 0.22ZM5.60 4.87L5.60 4.87L5.60 11.42Q6.47 11.54 8.12 11.54L8.12 11.54Q9.58 11.54 10.63 11.05Q11.68 10.56 12.21 9.73Q12.74 8.90 12.96 8.06Q13.19 7.22 13.19 6.27L13.19 6.27Q13.19 3.84 11.96 2.51Q10.72 1.18 7.84 1.18L7.84 1.18Q6.80 1.18 5.77 1.37L5.77 1.37Q5.60 2.97 5.60 4.87ZM39.87 18.03L39.87 18.03L39.87 1.93L31.42 23.44L30.69 23.44L22.54 2.63L22.54 18.03Q22.54 20.24 22.65 21.31L22.65 21.31L25.26 21.64Q25.42 22.15 25.26 22.65L25.26 22.65Q22.85 22.60 21.84 22.60L21.84 22.60Q20.16 22.60 18.45 22.68L18.45 22.68Q18.34 22.06 18.45 21.64L18.45 21.64L21.00 21.36L21.00 4.87Q21.00 2.66 20.89 1.60L20.89 1.60L18.56 1.26Q18.40 0.78 18.56 0.31L18.56 0.31L24.72 0.31L31.75 18.73L38.95 0.31Q39.59 0.34 40.91 0.34L40.91 0.34Q41.19 0.34 45.30 0.25L45.30 0.25Q45.47 0.76 45.30 1.26L45.30 1.26L42.98 1.60Q42.87 2.66 42.87 4.87L42.87 4.87L42.87 21.36L45.14 21.64Q45.25 22.06 45.14 22.68L45.14 22.68Q43.37 22.60 41.30 22.60L41.30 22.60Q39.79 22.60 37.44 22.65L37.44 22.65Q37.27 21.95 37.44 21.64L37.44 21.64L39.76 21.31Q39.87 20.24 39.87 18.03ZM48.10 0.22L48.10 0.22Q49.53 0.22 52.22 0.11Q54.91 0 55.78 0L55.78 0L56.53 0Q60.20 0 61.99 1.50Q63.78 3.00 63.78 5.43L63.78 5.43Q63.78 8.90 59.25 10.25L59.25 10.25L59.25 10.33Q61.88 10.72 63.41 12.39Q64.93 14.06 64.93 16.38L64.93 16.38Q64.93 19.49 62.82 21.22Q60.70 22.96 56.62 22.96L56.62 22.96Q55.50 22.96 52.99 22.78Q50.48 22.60 49.00 22.60L49.00 22.60Q48.83 22.60 48.47 22.61Q48.10 22.62 47.94 22.62L47.94 22.62Q47.77 22.12 47.94 21.62L47.94 21.62L50.26 21.31Q50.37 20.24 50.37 18.03L50.37 18.03L50.37 1.54L48.10 1.26Q47.99 0.84 48.10 0.22ZM55.61 11.23L55.61 11.23L53.37 11.23L53.37 21.36Q54.80 21.62 55.64 21.67L55.64 21.67Q59.02 21.67 60.31 20.40Q61.60 19.12 61.60 16.41L61.60 16.41Q61.60 14.22 60.02 12.73Q58.44 11.23 55.61 11.23ZM55.80 1.18L55.80 1.18Q54.40 1.18 53.48 1.37L53.48 1.37Q53.37 2.44 53.37 4.87L53.37 4.87L53.37 9.83L55.55 9.83Q58.16 9.83 59.35 8.76Q60.54 7.70 60.54 5.60L60.54 5.60Q60.54 3.47 59.23 2.32Q57.93 1.18 55.80 1.18Z" transform="translate(19.727, 74.5)"></path></svg>