<?xml version="1.0" standalone="no"?>
<svg xmlns="http://www.w3.org/2000/svg" viewBox="0 0 103.646 119.68" width="103.646" height="119.68"><polygon fill="none" stroke="#7872ed" stroke-width="3" points="102.146,30.67 102.146,89.01 51.823,118.18 1.5,89.01 1.5,30.67 51.823,1.5"></polygon><g fill="#ffffff" color="#ffffff" transform="translate(29.823 22.5) scale(0.44)"><svg width="100.0" height="100.0" x="0.0" y="0.0" viewBox="0 0 100 100"><path d="M11.6,61.4c-0.2,0-0.3,0.1-0.5,0.1c-0.9,0-1.7-0.6-1.9-1.5C8.4,56.6,8,53.3,8,49.9c0-1.1,0.9-2,2-2c1.1,0,2,0.9,2,2  c0,3.1,0.4,6.1,1.1,9.1C13.4,60,12.7,61.1,11.6,61.4z M10.7,42.2c0.2,0,0.3,0.1,0.5,0.1c0.9,0,1.7-0.6,1.9-1.5  c0.7-3,1.8-5.8,3.2-8.6c0.5-1,0.1-2.2-0.8-2.7c-1-0.5-2.2-0.1-2.7,0.8c-1.6,3-2.8,6.2-3.6,9.5C8.9,40.9,9.6,42,10.7,42.2z M20,25.3  c0.6,0,1.1-0.2,1.5-0.7c2-2.3,4.3-4.3,6.9-6.1c0.9-0.6,1.1-1.9,0.5-2.8c-0.6-0.9-1.9-1.1-2.8-0.5c-2.8,1.9-5.3,4.2-7.6,6.7  c-0.7,0.8-0.7,2.1,0.2,2.8C19.1,25.2,19.6,25.3,20,25.3z M54.5,12.1c3,0.4,6,1.1,8.9,2.2c0.2,0.1,0.5,0.1,0.7,0.1  c0.8,0,1.6-0.5,1.9-1.3c0.4-1-0.1-2.2-1.2-2.6c-3.2-1.2-6.5-2-9.8-2.4c-1.1-0.1-2.1,0.7-2.2,1.7C52.7,11,53.4,12,54.5,12.1z   M35.8,14.5c0.2,0,0.5,0,0.7-0.1c2.9-1.1,5.8-1.8,8.9-2.2c1.1-0.1,1.9-1.1,1.7-2.2C47,8.8,46,8,44.9,8.2c-3.4,0.4-6.7,1.2-9.8,2.4  c-1,0.4-1.6,1.5-1.2,2.6C34.2,14,35,14.5,35.8,14.5z M86.9,40.7c0.2,0.9,1,1.5,1.9,1.5c0.2,0,0.3,0,0.5-0.1c1.1-0.3,1.7-1.4,1.5-2.4  c-0.8-3.3-2-6.5-3.6-9.5c-0.5-1-1.7-1.4-2.7-0.8s-1.4,1.7-0.8,2.7C85.1,34.8,86.2,37.7,86.9,40.7z M71.5,18.6  c2.5,1.7,4.8,3.8,6.9,6.1c0.4,0.4,0.9,0.7,1.5,0.7c0.5,0,0.9-0.2,1.3-0.5c0.8-0.7,0.9-2,0.2-2.8c-2.2-2.5-4.8-4.8-7.6-6.7  c-0.9-0.6-2.2-0.4-2.8,0.5C70.4,16.7,70.6,17.9,71.5,18.6z M36.5,85.4c-2.9-1.1-5.6-2.5-8.1-4.3c-0.9-0.6-2.2-0.4-2.8,0.5  c-0.6,0.9-0.4,2.2,0.5,2.8c2.8,1.9,5.8,3.5,9,4.7c0.2,0.1,0.5,0.1,0.7,0.1c0.8,0,1.6-0.5,1.9-1.3C38,86.9,37.5,85.8,36.5,85.4z   M90,47.8C90,47.8,90,47.8,90,47.8c-1.1,0-2,0.9-2,2c0,0,0,0.1,0,0.1c0,3.1-0.4,6.1-1.1,9.1c-0.3,1.1,0.4,2.2,1.5,2.4  c0.2,0,0.3,0.1,0.5,0.1c0.9,0,1.7-0.6,1.9-1.5c0.8-3.3,1.2-6.6,1.2-10.1c0,0,0-0.1,0-0.1C92,48.7,91.1,47.8,90,47.8z M54.5,87.6  c-1.5,0.2-3,0.3-4.6,0.3c-1.5,0-3-0.1-4.5-0.3c-1.1-0.1-2.1,0.6-2.2,1.7c-0.1,1.1,0.6,2.1,1.7,2.2c1.7,0.2,3.3,0.3,5.1,0.3  c1.7,0,3.4-0.1,5-0.3c1.1-0.1,1.9-1.1,1.7-2.2C56.6,88.2,55.6,87.5,54.5,87.6z M16.3,67.5c-0.5-1-1.7-1.4-2.7-0.8  c-1,0.5-1.4,1.7-0.8,2.7c1.6,3,3.5,5.8,5.8,8.3c0.4,0.4,0.9,0.7,1.5,0.7c0.5,0,0.9-0.2,1.3-0.5c0.8-0.7,0.9-2,0.2-2.8  C19.5,72.7,17.8,70.2,16.3,67.5z M64.8,84.8c-0.5,0.2-0.9,0.4-1.4,0.6c-1,0.4-1.6,1.5-1.2,2.6c0.3,0.8,1.1,1.3,1.9,1.3  c0.2,0,0.5,0,0.7-0.1c0.9-0.3,1.8-0.7,2.7-1.1C66.5,87.1,65.6,86,64.8,84.8z M50,85.9c4.8,0,9.5-1,13.9-2.8  c-0.6-1.2-0.9-2.5-1.2-3.9c-4,1.7-8.3,2.6-12.7,2.6c0,0,0,0-0.1,0c-8.5,0-16.6-3.4-22.6-9.4c-6-6.1-9.3-14.1-9.3-22.6  s3.4-16.6,9.4-22.6c6-6,14.1-9.3,22.6-9.3c0,0,0,0,0.1,0c8.5,0,16.6,3.4,22.6,9.4c6,6.1,9.3,14.1,9.3,22.6c0,4.2-0.8,8.3-2.4,12.1  c1.4,0.2,2.7,0.6,3.9,1.1C85.1,59,86,54.5,86,49.9c0-9.6-3.7-18.7-10.5-25.5S59.7,13.9,50.1,13.9c0,0,0,0-0.1,0  c-9.6,0-18.6,3.7-25.4,10.5C17.8,31.1,14,40.2,14,49.8c0,9.6,3.7,18.7,10.5,25.5S40.3,85.8,50,85.9C50,85.9,50,85.9,50,85.9z   M92,76.9c0,8-6.5,14.5-14.5,14.5S63,84.9,63,76.9s6.5-14.5,14.5-14.5S92,68.9,92,76.9z M88,76.9c0-5.8-4.7-10.5-10.5-10.5  S67,71.1,67,76.9s4.7,10.5,10.5,10.5S88,82.6,88,76.9z M75.8,72.3l1.5-1.5c0.4-0.4,0.6-0.9,0.6-1.4s-0.2-1-0.6-1.4  c-0.8-0.8-2-0.8-2.8,0l-4.9,4.9c0,0,0,0,0,0v0c0,0,0,0,0,0c0,0,0,0,0,0c0,0,0,0,0,0c0,0,0,0,0,0c-0.4,0.4-0.5,0.8-0.6,1.3  c0,0.1,0,0.3,0,0.4c0,0.4,0.2,0.8,0.5,1.1c0.1,0.1,0.1,0.1,0.2,0.2c0.4,0.3,0.9,0.5,1.3,0.5c0,0,0,0,0,0h13c1.1,0,2-0.9,2-2  s-0.9-2-2-2H75.8z M85.5,78.1c-0.1-0.1-0.1-0.1-0.2-0.2c-0.4-0.3-0.9-0.5-1.3-0.5c0,0,0,0,0,0H71c-1.1,0-2,0.9-2,2s0.9,2,2,2h8.2  l-1.5,1.5c-0.4,0.4-0.6,0.9-0.6,1.4s0.2,1,0.6,1.4c0.4,0.4,0.9,0.6,1.4,0.6s1-0.2,1.4-0.6l4.9-4.9c0,0,0,0,0,0c0,0,0,0,0,0v0  c0,0,0,0,0,0v0c0.4-0.4,0.5-0.8,0.6-1.3c0-0.1,0-0.3,0-0.4C85.9,78.8,85.8,78.5,85.5,78.1z M53.5,36.7c1.4,0,2.8,1.2,4,3.2  c0.9,1.6,3,2.1,4.6,1.2c1.6-0.9,2.1-3,1.2-4.6c-2.5-4.2-5.9-6.5-9.8-6.5c-5.6,0-10.3,5.1-12.2,12.5h-1.8c-1.8,0-3.3,1.5-3.3,3.3  s1.5,3.3,3.3,3.3h0.9c0,0.3,0,0.6,0,0.8c0,0.3,0,0.6,0,0.8h-0.9c-1.8,0-3.3,1.5-3.3,3.3s1.5,3.3,3.3,3.3h1.8  C43.3,64.9,47.9,70,53.5,70c3.9,0,7.4-2.3,9.8-6.6c0.9-1.6,0.3-3.6-1.3-4.5c-1.6-0.9-3.6-0.3-4.5,1.3c-1.2,2.1-2.5,3.2-4,3.2  c-1.9,0-4-2.3-5.2-5.8h8c1.8,0,3.3-1.5,3.3-3.3s-1.5-3.3-3.3-3.3h-9.1c0-0.3,0-0.6,0-0.8c0-0.3,0-0.6,0-0.8h9.1  c1.8,0,3.3-1.5,3.3-3.3s-1.5-3.3-3.3-3.3h-8C49.6,38.9,51.6,36.7,53.5,36.7z"></path></svg></g><path fill="#ffffff" fill-rule="nonzero" d="M3.16 22.68L0 22.68L0 0L5.63 0Q7.67 0 8.89 0.74Q10.11 1.48 10.67 2.88Q11.23 4.28 11.23 6.27L11.23 6.27Q11.23 8.06 10.60 9.38Q9.97 10.70 8.74 11.41Q7.50 12.12 5.66 12.12L5.66 12.12L3.16 12.12L3.16 22.68ZM3.16 2.27L3.16 9.86L4.62 9.86Q5.99 9.86 6.78 9.55Q7.56 9.24 7.90 8.47Q8.23 7.70 8.23 6.30L8.23 6.30Q8.23 4.68 7.99 3.81Q7.76 2.94 7.00 2.60Q6.24 2.27 4.65 2.27L4.65 2.27L3.16 2.27ZM15.96 22.68L13.38 22.68L13.80 0L16.91 0L20.92 18.40L24.95 0L28.03 0L28.45 22.68L25.90 22.68L25.65 6.22L21.81 22.68L20.02 22.68L16.21 6.22L15.96 22.68ZM37.97 22.68L31.92 22.68L31.92 0L37.13 0Q38.67 0 39.80 0.34Q40.94 0.67 41.69 1.37Q42.45 2.07 42.81 3.15Q43.18 4.23 43.18 5.68L43.18 5.68Q43.18 7.08 42.83 8.11Q42.48 9.13 41.76 9.72Q41.05 10.30 39.93 10.47L39.93 10.47Q41.30 10.78 42.14 11.52Q42.98 12.26 43.39 13.43Q43.79 14.59 43.79 16.21L43.79 16.21Q43.79 17.67 43.46 18.87Q43.12 20.08 42.41 20.92Q41.69 21.76 40.59 22.22Q39.48 22.68 37.97 22.68L37.97 22.68ZM35.08 11.87L35.08 20.41L37.21 20.41Q39.34 20.41 40.05 19.42Q40.77 18.42 40.77 16.21L40.77 16.21Q40.77 14.78 40.39 13.82Q40.01 12.85 39.19 12.36Q38.36 11.87 36.96 11.87L36.96 11.87L35.08 11.87ZM35.08 2.35L35.08 9.46L36.96 9.46Q38.30 9.46 39.06 9.09Q39.82 8.71 40.12 7.87Q40.43 7.03 40.43 5.68L40.43 5.68Q40.43 4.12 39.96 3.42Q39.48 2.72 38.47 2.53Q37.46 2.35 35.84 2.35L35.84 2.35L35.08 2.35Z" transform="translate(29.927, 74.5)"></path></svg>